# xmcd
#
# Track frame offsets:
#	182
#	20660
#	32750
#	51165
#	65722
#	80485
#	93207
#	106060
#	123785
#	140520
#	153007
#	163457
#	183775
#	193982
#	206705
#	234867
#
# Disc length: 3345 seconds
#
# Revision: 21
# Processed by: cddbd v1.5.2PL0 Copyright (c) Steve Scherf et al.
# Submitted via: audiograbber 1.83.01
#
DISCID=d40d0f10
DTITLE=Echt Kultig - Diverse Interpreten  - Kult 3 - Folge 2 (LC 8637)
DYEAR=1997
DGENRE=Deutsch Schlager
TTITLE0=Dschingis Khan - Moskau
TTITLE1=Chris Roberts - Ich mach ein glückliches Mädchen aus dir
TTITLE2=Heino - Blau blüht der Enzian
TTITLE3=Cindy and Bert - Immer wieder Sonntags
TTITLE4=Wencke Myhre - Er hat ein knallrotes Gummiboot
TTITLE5=Bata Illic - Ich möcht der Knopf an deiner Bluse sein
TTITLE6=Mary Roos - Hamburg im Regen
TTITLE7=Gunter Gabriel - Komm unter meine Decke
TTITLE8=Gitte Haenning - So schön kann doch kein Mann sein
TTITLE9=Ingrid Peters - Komm doch mal rüber
TTITLE10=Peter Orloff - Monika
TTITLE11=Adam and Eve - Du gehst fort (Tu t'en vas)
TTITLE12=Marion Maerz - Nur beim Abschied nicht weinen
TTITLE13=Rex Gildo - Speedy Gonzales
TTITLE14=Frank Schöbel - Wie ein Stern
TTITLE15=Joy Fleming - Ein Lied kann eine Brücke sein
EXTD=
EXTT0=
EXTT1=
EXTT2=
EXTT3=
EXTT4=
EXTT5=
EXTT6=
EXTT7=
EXTT8=
EXTT9=
EXTT10=
EXTT11=
EXTT12=
EXTT13=
EXTT14=
EXTT15=
PLAYORDER=
